<?xml version="1.0" standalone="no"?>
<!DOCTYPE svg PUBLIC "-//W3C//DTD SVG 1.1//EN" "http://www.w3.org/Graphics/SVG/1.1/DTD/svg11.dtd" >
<svg xmlns="http://www.w3.org/2000/svg">
<metadata>
Created by FontForge 20120731 at Thu Dec 29 14:40:03 2016
 By admin
</metadata>
<defs>
<font id="iconfont" horiz-adv-x="1024" >
  <font-face 
    font-family="iconfont"
    font-weight="500"
    font-stretch="normal"
    units-per-em="1024"
    panose-1="2 0 6 3 0 0 0 0 0 0"
    ascent="896"
    descent="-128"
    x-height="792"
    bbox="-0.333334 -128.136 2014 896"
    underline-thickness="0"
    underline-position="0"
    unicode-range="U+0078-E66C"
  />
<missing-glyph 
 />
    <glyph glyph-name=".notdef" 
 />
    <glyph glyph-name=".notdef" 
 />
    <glyph glyph-name=".null" horiz-adv-x="0" 
 />
    <glyph glyph-name="nonmarkingreturn" horiz-adv-x="341" 
 />
    <glyph glyph-name="x" unicode="x" horiz-adv-x="1001" 
d="M281 543q-27 -1 -53 -1h-83q-18 0 -36.5 -6t-32.5 -18.5t-23 -32t-9 -45.5v-76h912v41q0 16 -0.5 30t-0.5 18q0 13 -5 29t-17 29.5t-31.5 22.5t-49.5 9h-133v-97h-438v97zM955 310v-52q0 -23 0.5 -52t0.5 -58t-10.5 -47.5t-26 -30t-33 -16t-31.5 -4.5q-14 -1 -29.5 -0.5
t-29.5 0.5h-32l-45 128h-439l-44 -128h-29h-34q-20 0 -45 1q-25 0 -41 9.5t-25.5 23t-13.5 29.5t-4 30v167h911zM163 247q-12 0 -21 -8.5t-9 -21.5t9 -21.5t21 -8.5q13 0 22 8.5t9 21.5t-9 21.5t-22 8.5zM316 123q-8 -26 -14 -48q-5 -19 -10.5 -37t-7.5 -25t-3 -15t1 -14.5
t9.5 -10.5t21.5 -4h37h67h81h80h64h36q23 0 34 12t2 38q-5 13 -9.5 30.5t-9.5 34.5q-5 19 -11 39h-368zM336 498v228q0 11 2.5 23t10 21.5t20.5 15.5t34 6h188q31 0 51.5 -14.5t20.5 -52.5v-227h-327z" />
    <glyph glyph-name="about_activity" unicode="&#xe63c;" 
d="M512 384zM0 384q0 -139 68.5 -257t186.5 -186.5t257 -68.5t257 68.5t186.5 186.5t68.5 257t-68.5 257t-186.5 186.5t-257 68.5t-257 -68.5t-186.5 -186.5t-68.5 -257zM238 490q-13 -12 -13 -26v-96q0 -18 13 -27q10 -10 26 -10h39v172h-39q-17 0 -26 -13zM485 157
q-3 5 -10 15t-10 15q-4 5 -8.5 13t-5.5 10q-9 12 -11 18q-1 3 -4 8.5t-4 8.5q-8 4 -14 4q-8 4 -15 4q-3 1 -9 2t-9 2t-9 2t-9 2t-7.5 2t-7.5 2q-4 2 -12 2q-3 -9 0 -22q5 -22 8 -29q6 -17 21 -41q13 -23 22 -35q10 -16 21 -24q8 -8 20 -15q6 -4 23 -4h34q17 0 17 8
q2 7 -4 23q-4 8 -17 29zM795 470q-2 25 -11 70q-5 30 -18 59q-12 27 -29 41q-12 12 -37 12q-24 -3 -47 -28q-32 -29 -59 -41q-31 -14 -66 -27q-45 -12 -65 -16q-52 -10 -60 -11l-20 -4t-23 -6q-18 -7 -18 -14v-193q4 -7 23 -10q3 0 21 -3.5t30 -4.5q11 -2 34 -5.5t33 -4.5
q49 -9 72 -17q25 -6 66 -22q34 -18 47 -35q18 -21 34 -25q19 -3 31 9q12 7 27 32q10 18 20 49q7 21 15 62q4 45 4 65q0 19 -4 68z" />
    <glyph glyph-name="but_add" unicode="&#xe63d;" 
d="M363 21l-303 337q-19 20 -17.5 49.5t21.5 49.5q19 19 42 19t39 -19q12 -14 72 -81.5t112 -126.5t64 -70q9 -9 16.5 -9t17.5 9l439 487q16 19 45 23.5t49 -11.5q19 -18 20 -47t-16 -51l-512 -554q-16 -20 -43 -21.5t-46 16.5z" />
    <glyph glyph-name="about_mail" unicode="&#xe63e;" 
d="M512 384zM0 384q0 -139 68.5 -257t186.5 -186.5t257 -68.5t257 68.5t186.5 186.5t68.5 257t-68.5 257t-186.5 186.5t-257 68.5t-257 -68.5t-186.5 -186.5t-68.5 -257zM256 525l256 -155l256 155q1 1 5 2.5t5 1.5v21q0 26 -17.5 43.5t-43.5 17.5h-410q-26 0 -43.5 -17.5
t-17.5 -43.5v-21q8 -4 10 -4zM528 323q-8 -5 -16 -5t-16 5l-250 151v-254q0 -26 17.5 -43.5t43.5 -17.5h410q26 0 43.5 17.5t17.5 43.5v254z" />
    <glyph glyph-name="but_answer" unicode="&#xe63f;" 
d="M177 49l219 63l472 491q18 19 18 41.5t-18 39.5l-119 124q-17 19 -39 19t-40 -19l-472 -491l-61 -226q-3 -25 7 -36t33 -6zM691 747q14 16 20 16t20 -16l79 -81q14 -17 14.5 -21.5t-14.5 -20.5l-33 -35l-118 121zM619 670l119 -123l-338 -349l-118 123zM242 279l119 -123
l-163 -47zM931 12h-838q-14 0 -24.5 -10.5t-10.5 -24.5t10.5 -24.5t24.5 -10.5h838q14 0 24.5 10.5t10.5 24.5t-10.5 24.5t-24.5 10.5z" />
    <glyph glyph-name="about_technology" unicode="&#xe640;" 
d="M512 384zM0 384q0 -139 68.5 -257t186.5 -186.5t257 -68.5t257 68.5t186.5 186.5t68.5 257t-68.5 257t-186.5 186.5t-257 68.5t-257 -68.5t-186.5 -186.5t-68.5 -257zM784 239l-186 141q23 45 23 92q0 82 -58.5 140.5t-140.5 58.5q-33 0 -57 -8l114 -115q13 -12 13 -30.5
t-13 -31.5l-69 -69q-13 -13 -31.5 -13t-30.5 13l-115 114q-8 -24 -8 -57q0 -82 58 -140.5t141 -58.5q50 0 92 23l141 -186q13 -14 30.5 -14.5t29.5 12.5l69 69q13 12 12.5 29.5t-14.5 30.5z" />
    <glyph glyph-name="but_add1" unicode="&#xe641;" 
d="M960 427h-363v405q0 26 -19 45t-44.5 19t-45 -19t-19.5 -45v-405h-405q-26 0 -45 -19.5t-19 -45t19 -44.5t45 -19h405v-363q0 -26 19.5 -45t45 -19t44.5 19t19 45v363h363q26 0 45 19t19 44.5t-19 45t-45 19.5z" />
    <glyph glyph-name="but_comment" unicode="&#xe642;" 
d="M842 805h-670q-46 0 -68.5 -28t-22.5 -79v-440q0 -128 94 -128h186q13 -14 47.5 -53.5t62 -72l27.5 -32.5q2 -2 2 -5l163 163h163q54 0 85.5 43t31.5 97v419q0 49 -27.5 82.5t-73.5 33.5zM896 270q0 -4 -0.5 -10t-4 -22t-10.5 -28t-21 -22t-34 -11h-163q-9 0 -17 -2
l-12 -3l-3 -2l-131 -133l-111 133q-33 7 -52 7h-162q-23 0 -35 21t-12 49v442q0 27 12.5 48.5t34.5 21.5h674q22 0 34.5 -21.5t12.5 -48.5v-419zM500 -35zM279 526q-24 0 -41 -17t-17 -41.5t17 -41t41.5 -16.5t41 16.5t16.5 41.5q0 23 -17 40.5t-41 17.5zM512 526
q-24 0 -41 -17t-17 -41.5t17 -41t41 -16.5t41 16.5t17 41.5q0 23 -17 40.5t-41 17.5zM745 526q-25 0 -41.5 -17t-16.5 -41.5t16.5 -41t41 -16.5t41.5 16.5t17 41.5q0 23 -17 40.5t-41 17.5z" />
    <glyph glyph-name="but_ecommend" unicode="&#xe643;" 
d="M213 512h86v-597h-86v597zM457 811q48 -6 81 -39q17 -25 17 -42v-188q0 -48 33.5 -81.5t81.5 -33.5h226q26 0 34 -9q3 -3 6 -12.5t3 -12.5q-41 -290 -128 -436h-683q-30 0 -38 9q-5 4 -5 13v405q0 30 9 38q4 5 21 5h103l21 12q42 26 76 61.5t53.5 70t32.5 64t19 49.5
t7 20q5 26 11.5 48.5t11.5 38t7 20.5zM444 896q-17 0 -43 -17q-33 -41 -60 -154q-1 -5 -3.5 -15t-14 -38.5t-26 -53.5t-41.5 -55.5t-60 -50.5h-72h-4q-49 4 -84.5 -29t-35.5 -99v-397v-12t6 -28t17.5 -35t39 -27.5t65.5 -12.5h687q20 0 37.5 9t26.5 25q37 54 77 170.5
t68 307.5q0 3 0.5 7.5t-1 17.5t-5 25.5t-13 27t-22.5 25t-35.5 18t-51.5 7.5h-230q-10 0 -18 8.5t-8 21.5v188q0 57 -38 102q-64 64 -158 64z" />
    <glyph glyph-name="but_shenhe" unicode="&#xe644;" 
d="M85 47v730q0 12 11 23t23 11h700q13 0 23.5 -11t10.5 -23v-278l43 30q38 26 38 73v209q0 35 -25 60t-60 25h-764q-35 0 -60 -25t-25 -60v-849l55 34q13 9 21.5 23.5t8.5 27.5zM256 640h427q19 0 30.5 -11.5t11.5 -31t-11.5 -31t-30.5 -11.5h-427q-16 0 -29.5 13t-13.5 29
q0 19 13 31t30 12zM256 427h341q20 0 31.5 -12t11.5 -31t-11.5 -31t-31.5 -12h-341q-19 0 -31 12t-12 31q0 18 13 30.5t30 12.5zM1007 371q-16 16 -36.5 16t-36.5 -16l-371 -371l-175 175q-16 16 -36 16t-36 -16t-16 -36.5t16 -36.5l213 -213q17 -17 38.5 -17t38.5 17
l409 410q11 12 9 34.5t-17 37.5z" />
    <glyph glyph-name="list_arrow" unicode="&#xe645;" 
d="M279.5 -105q-9.5 0 -16.5 7t-7 16.5t7 16.5l449 449l-449 449q-7 7 -7 16.5t7 16.5t16.5 7t16.5 -7l465 -466q7 -7 7 -16t-7 -16l-465 -466q-7 -7 -16.5 -7z" />
    <glyph glyph-name="but_shouhui" unicode="&#xe646;" 
d="M896 43q0 -20 -11.5 -31.5t-31.5 -11.5h-682q-20 0 -31.5 11.5t-11.5 31.5v682q0 20 11.5 31.5t31.5 11.5h273q29 0 48.5 19.5t19.5 48.5q0 26 -17 43t-43 17h-367q-35 0 -60 -25t-25 -60v-854q0 -35 25 -60t60 -25h854q35 0 60 25t25 60v367q0 26 -17 43t-43 17h-4
q-26 0 -45 -19t-19 -45v-277zM960 896h-256q-26 0 -45 -19t-19 -45t19 -45t45 -19h98l-269 -269q-19 -19 -19 -44.5t19.5 -45t45 -19.5t44.5 20l273 273v-107q0 -26 19 -45t45 -19t45 19t19 45v256q0 26 -19 45t-45 19zM896 768z" />
    <glyph glyph-name="list_delete" unicode="&#xe647;" 
d="M384 151h47q11 0 11 12v302q0 12 -11 12h-47q-12 0 -12 -12v-302q0 -12 12 -12zM908 640h-140v140q0 10 -6.5 16.5t-16.5 6.5h-466q-10 0 -16.5 -6.5t-6.5 -16.5v-140h-140q-10 0 -16.5 -6.5t-6.5 -16.5v-24q0 -10 6.5 -16.5t16.5 -6.5h47v-509q0 -41 30.5 -68.5
t74.5 -27.5h467q44 0 74.5 28.5t30.5 67.5v509h70q10 0 16.5 6.5t6.5 16.5v24q-2 9 -8.5 16t-16.5 7zM326 733h372v-93h-372v93zM768 81q0 -19 -13.5 -32.5t-33.5 -13.5h-442q-19 0 -32.5 13.5t-13.5 32.5v489h535v-489zM593 151h47q12 0 12 12v302q0 12 -12 12h-47
q-11 0 -11 -12v-302q0 -12 11 -12z" />
    <glyph glyph-name="list_download" unicode="&#xe648;" 
d="M954 291h-23q-10 0 -16.5 -5.5t-6.5 -13.5v-237h-792v237q0 8 -6.5 13.5t-16.5 5.5h-23q-10 0 -16.5 -5.5t-6.5 -13.5v-288q0 -8 6.5 -13.5t16.5 -5.5h884q10 0 16.5 5.5t6.5 13.5v288q0 8 -6.5 13.5t-16.5 5.5zM496 186l2 -2l2 -2q3 0 3 -3q10 -7 21 -7q14 0 23 10l2 2
l207 207q11 10 11 25.5t-10.5 26t-25.5 10.5t-26 -11l-146 -146v479q0 12 -10.5 20t-25 8t-24.5 -8t-10 -20v-479l-149 149q-11 10 -26 10t-25.5 -10.5t-10.5 -25.5t11 -26z" />
    <glyph glyph-name="login_code" unicode="&#xe649;" 
d="M512 725q80 0 136 -56t56 -136v-21h-384v21q0 80 56 136t136 56zM512 768q-98 0 -166.5 -68.5t-68.5 -166.5v-64h470v64q0 98 -68.5 166.5t-166.5 68.5zM747 469q17 0 29.5 -12.5t12.5 -29.5v-342q0 -17 -12.5 -29.5t-29.5 -12.5h-470q-17 0 -29.5 12.5t-12.5 29.5v342
q0 17 12.5 29.5t29.5 12.5h470zM747 512h-470q-35 0 -60 -25t-25 -60v-342q0 -35 25 -60t60 -25h470q35 0 60 25t25 60v342q0 35 -25 60t-60 25z" />
    <glyph glyph-name="list_more" unicode="&#xe64a;" 
d="M512 219q-9 0 -16 7l-287 284q-7 7 -7 16t7 16t16.5 7t16.5 -7l270 -267l268 267q7 7 16 7t16 -7t7 -16t-7 -16l-284 -284q-7 -7 -16 -7z" />
    <glyph glyph-name="login_use" unicode="&#xe64b;" 
d="M512 725q70 0 120.5 -50t50.5 -120q0 -75 -56 -124l-23 -24q-9 -7 -7 -19t13 -15l30 -12q78 -32 122.5 -104.5t46.5 -169.5q0 -10 -1 -17.5t-1.5 -10.5t-0.5 -4q-12 -12 -172 -12h-297q-109 0 -119 10q-5 7 -5 34q0 95 45 167.5t124 106.5l32 12q11 5 12.5 16t-6.5 18
l-23 24q-56 49 -56 124q0 70 50.5 120t120.5 50zM512 768q-88 0 -150.5 -62.5t-62.5 -150.5q0 -95 68 -156q-93 -38 -144.5 -121.5t-51.5 -190.5q0 -25 3.5 -39.5t12 -25t29.5 -15t47.5 -6t73.5 -1.5h297q55 0 86 0.5t59.5 4t40.5 8.5t21.5 16t11 24t0.5 34q-1 106 -53 190
t-143 122q68 61 68 156q0 88 -62.5 150.5t-150.5 62.5z" />
    <glyph glyph-name="login_yanzheng" unicode="&#xe64c;" 
d="M486 356l-111 111q-3 4 -7.5 2.5t-4.5 -6.5v-45q0 -4 2 -4l121 -122q4 -3 11 0l164 165q2 2 2 4v45q0 4 -4.5 5.5t-7.5 -1.5l-154 -154q-7 -3 -11 0zM512 687q28 0 55 -17q77 -55 201 -111v-184q-2 -25 -7.5 -52t-22.5 -65t-43.5 -70.5t-74 -63.5t-108.5 -49
q-61 17 -108.5 48.5t-73.5 63t-43 71t-23 65.5t-8 52v184q112 48 201 111q27 17 55 17zM512 730q-44 0 -79 -26q-48 -33 -109 -65t-96 -46q-15 -7 -15 -23v-197q3 -30 10 -61.5t27.5 -75t50.5 -79.5t82.5 -70t119.5 -53h13q68 19 121.5 53t84 70t51 79t28 75t10.5 62v197
q0 16 -15 23q-141 66 -205 111q-35 26 -79 26z" />
    <glyph glyph-name="nav_back" unicode="&#xe64d;" 
d="M744.5 -105q-9.5 0 -16.5 7l-465 466q-7 7 -7 16t7 16l465 466q7 7 16.5 7t16.5 -7t7 -16.5t-7 -16.5l-449 -449l449 -449q7 -7 7 -16.5t-7 -16.5t-16.5 -7z" />
    <glyph glyph-name="medal_gold" unicode="&#xe64e;" 
d="M820 896q-16 -1 -32 -1t-42.5 0.5t-48.5 0.5h-19q-44 0 -57 -9t-45 -62q-10 -17 -32.5 -53t-30.5 -49q-39 61 -63 102q-34 53 -47.5 62t-58.5 9h-17h-123q-19 0 -25 -11t-0.5 -28.5t12 -30.5t14.5 -25q33 -50 176 -287q-5 -8 -7 -12v0h275q-2 4 -7 12q171 280 176 287
q8 11 15 25t12.5 31t-0.5 28t-25 11zM128 266v0q0 -107 51.5 -197.5t140 -143.5t192.5 -53t192.5 53t140 143.5t51.5 197.5v0q0 107 -51.5 198t-140 143.5t-192.5 52.5t-192.5 -52.5t-140 -143.5t-51.5 -198v0zM236 265v0q0 -117 80.5 -200t195 -83t195.5 83t81 200v0
q0 118 -81 201t-195.5 83t-195 -83t-80.5 -201v0zM679 321q-7 19 -26 22l-77 11l-34 67q-10 18 -30 18t-30 -18l-34 -67l-77 -11q-21 -3 -26 -22q-7 -19 8 -33l56 -53l-14 -73q-4 -20 13 -31q18 -12 35 -3l68 35l68 -35q7 -3 16 -3q11 0 19 6q17 11 13 31l-13 74l56 52
q16 14 9 33z" />
    <glyph glyph-name="medal_silver" unicode="&#xe64f;" 
d="M828 895h-126h-15q-24 1 -34 0t-23.5 -8t-24 -21t-28.5 -41q-18 -29 -65 -103q-8 12 -31.5 48.5t-34.5 54.5q-17 27 -27.5 41t-23.5 21t-23 8t-34 0h-15h-126q-18 0 -24 -11t-1 -28t11.5 -30.5t13.5 -24.5q79 -126 181 -287l-8 -12h285l-8 12q165 263 181 287
q7 11 12.5 24.5t10.5 30.5t-0.5 28t-22.5 11zM512 266zM118 265.5q0 -106.5 53 -197.5t143.5 -143.5t197.5 -52.5t197.5 52.5t143 143.5t52.5 197.5t-52.5 197.5t-143 143.5t-197.5 52.5t-197.5 -52.5t-143.5 -143.5t-53 -197.5zM512 266zM228 265.5q0 -117.5 83 -200.5
t200.5 -83t200.5 83t83 200.5t-83 200.5t-200.5 83t-200.5 -83t-83 -200.5zM684 321q-6 18 -28 22l-79 11l-35 66q-9 19 -30 19q-22 0 -30 -19l-36 -66l-79 -11q-20 -2 -27 -22q-7 -21 9 -33l56 -53l-13 -73q-4 -20 13 -32q19 -11 36 -2l69 35l70 -35q8 -4 16 -4q11 0 19 6
q18 12 14 32l-14 73l57 53q18 14 12 33z" />
    <glyph glyph-name="medal_bronze" unicode="&#xe650;" 
d="M828 896h-126h-14q-25 0 -35 -1t-23.5 -8t-23.5 -20.5t-28 -41.5q-19 -29 -66 -102q-8 11 -31 48t-35 54q-17 28 -27 41.5t-23.5 20.5t-23.5 8t-34 1h-15h-127q-19 0 -24.5 -11t0 -28.5t12 -30.5t13.5 -25q79 -126 181 -287l-8 -12h285l-8 12q11 18 40 65t56.5 91
t54.5 86t29 45q7 11 13.5 25t11 30.5t-1 28t-22.5 11.5zM118 266q0 -107 53 -198t143.5 -143.5t197.5 -52.5t197.5 52.5t143.5 143.5t53 198t-53 197.5t-143.5 143.5t-197.5 53t-197.5 -53t-143.5 -143.5t-53 -197.5zM512 266zM228 265.5q0 -117.5 83.5 -200.5t200.5 -83
t200 83t83 200.5t-83 200.5t-200 83t-200.5 -83t-83.5 -200.5zM684 321q-6 18 -28 22l-78 11l-36 67q-9 18 -30 18q-22 0 -30 -18l-36 -67l-78 -11q-21 -2 -28 -22q-7 -21 9 -33l57 -52l-14 -74q-4 -20 14 -31q18 -12 35 -3l70 35l69 -35q8 -4 16 -4q11 0 20 7q17 11 13 31
l-13 74l56 52q18 14 12 33z" />
    <glyph glyph-name="nav_close" unicode="&#xe651;" 
d="M907.5 -35q-9.5 0 -16.5 7l-791 791q-7 7 -7 16.5t7 16.5t16.5 7t16.5 -7l791 -791q7 -7 7 -16.5t-7 -16.5t-16.5 -7zM116.5 -35q-9.5 0 -16.5 7t-7 16.5t7 16.5l791 791q7 7 16.5 7t16.5 -7t7 -16.5t-7 -16.5l-791 -791q-7 -7 -16.5 -7z" />
    <glyph glyph-name="richtext_file" unicode="&#xe652;" 
d="M873 388l-3 -2l-343 -341l-2 -2q-64 -63 -154.5 -62t-152.5 64q-64 62 -64.5 151.5t61.5 153.5q4 3 197.5 195.5t195.5 194.5q45 45 109 45t109 -45q44 -41 44 -106q0 -61 -44 -109l-395 -391q-26 -22 -58.5 -21t-56.5 24t-24.5 57t22.5 58l2 2l343 341q7 7 7 16.5
t-6.5 16t-16 6.5t-16.5 -7l-343 -341l-2 -2l-5 -2l-4 -5q-32 -38 -29.5 -87.5t38.5 -84.5q36 -37 89 -38.5t92 33.5l395 393q59 60 59 141q0 79 -57 140q-25 24 -66.5 41t-75.5 17t-75.5 -17t-66.5 -41l-196 -196l-135 -134l-64 -60q-75 -77 -74.5 -186t77 -185.5
t187.5 -76.5q108 0 184 73h2l2 2l343 341l3 2q6 7 6.5 16t-6.5 16q-14 17 -32 2z" />
    <glyph glyph-name="richtext_pic" unicode="&#xe653;" 
d="M949 736v-704h-874v704h874zM949 779h-874q-18 0 -30.5 -12.5t-12.5 -30.5v-704q0 -18 12.5 -30.5t30.5 -12.5h874q18 0 30.5 12.5t12.5 30.5v704q0 18 -12.5 30.5t-30.5 12.5zM968.5 111q-8.5 0 -14.5 6l-203 182l-117 -118q-7 -6 -15.5 -6t-14.5 6l-267 248l-269 -248
q-6 -6 -14.5 -5t-15.5 7q-6 7 -5 15.5t8 14.5l283 263q7 6 15.5 6t14.5 -6l265 -250l115 115q6 7 14.5 7t15.5 -7l217 -194q14 -14 2 -30q-6 -6 -14.5 -6zM715 565zM672 565v0q0 -17 12.5 -29.5t30 -12.5t30 12.5t12.5 29.5v0v0q0 18 -12.5 30.5t-30 12.5t-30 -12.5
t-12.5 -30.5v0z" />
    <glyph glyph-name="nav_set" unicode="&#xe654;" 
d="M347 822q69 -66 165 -66q98 0 165 68q73 -29 128 -75q-21 -96 26 -179q46 -82 139 -112q7 -38 7 -74t-7 -74q-94 -30 -139 -112q-47 -83 -26 -179q-55 -46 -128 -75q-67 68 -165 68t-165 -68q-73 29 -128 75q21 96 -26 179q-46 82 -139 112q-7 38 -7 74t7 74
q95 31 139 112q47 83 26 179q59 48 128 73zM673 873q-12 0 -19 -7q-56 -63 -142 -63q-83 0 -142 63q-7 7 -19 7q-4 0 -7 -3q-92 -32 -165 -97q-13 -7 -9 -24q25 -81 -16 -156q-46 -75 -126 -93q-15 -3 -19 -18q-9 -44 -9 -98t9 -98q4 -15 19 -18q80 -18 126 -93
q42 -71 16 -156q-4 -15 7 -26q72 -62 165 -98q1 0 3.5 -1t3.5 -1q12 0 19 7q59 63 141.5 63t142.5 -63q7 -7 18 -7q5 0 7 2q93 32 165 98q11 11 7 26q-18 84 21 156q46 75 126 93q15 3 19 18q9 44 9 98t-9 98q-4 15 -19 18q-80 18 -126 93q-42 71 -16 156q4 15 -7 26
q-72 62 -165 98h-9zM512 554q70 0 120 -50t50 -120t-50 -120t-120 -50t-120 50t-50 120t50 120t120 50zM512 600q-89 0 -152.5 -63.5t-63.5 -152.5t63 -152.5t153 -63.5t153 63.5t63 152.5t-63.5 152.5t-152.5 63.5z" />
    <glyph glyph-name="richtext_voice" unicode="&#xe655;" 
d="M512 169q103 0 175 63t72 152v265q0 89 -72 152t-175 63t-175 -63t-72 -152v-265q0 -89 72 -152t175 -63zM320 649q0 69 56 118.5t136 49.5t136 -49t56 -119v-265q0 -69 -56 -119t-136 -50t-136 49.5t-56 119.5v265zM896 384q0 10 -8 16.5t-19.5 6.5t-19.5 -6.5t-8 -16.5
q0 -78 -44 -144t-120 -105t-165 -39t-165 39t-120 105t-44 144q0 10 -8 16.5t-19.5 6.5t-19.5 -6.5t-8 -16.5q0 -87 47.5 -162t129 -121t179.5 -52v-119q0 -10 8.5 -17t19.5 -7t19.5 7t8.5 17v119q98 6 179.5 52t129 121t47.5 162z" />
    <glyph glyph-name="richtext_radio" unicode="&#xe656;" 
d="M757 736h-714q-18 0 -30.5 -12.5t-12.5 -30.5v-618q0 -18 12.5 -30.5t30.5 -12.5h714q18 0 30.5 12.5t12.5 30.5v618q0 18 -12.5 30.5t-30.5 12.5zM757 98q0 -9 -7 -16t-16 -7h-668q-9 0 -16 7t-7 16v572q0 9 7 16t16 7h670q10 0 16.5 -7t6.5 -16v-572h-2zM960 672
l-192 -115v-160l-2 -160l194 -111q2 -1 5.5 -2.5t13 -2.5t17.5 1t16 11.5t12 26.5v469q-6 23 -22 33.5t-29 10.5zM981 585v-382q0 -17 -10 -21t-22 2t-22 12t-10 7l-149 85v213l164 101l6 3t13 4.5t15.5 2.5t11.5 -7t3 -20zM213 523zM171 523v0q0 -18 12.5 -30.5t30 -12.5
t30 12.5t12.5 30.5v0v0q0 17 -12.5 29.5t-30 12.5t-30 -12.5t-12.5 -29.5v0z" />
    <glyph glyph-name="search_nor" unicode="&#xe657;" 
d="M458 710q115 0 196 -81.5t81 -195.5t-81.5 -195.5t-195.5 -81.5t-196.5 81t-82.5 196t82 196t197 81zM458.5 756q-88.5 0 -163.5 -43t-118.5 -117.5t-43.5 -162.5t43 -162.5t117.5 -118t162.5 -43.5t162.5 43.5t118 118t43.5 162.5q1 88 -42 162.5t-117 117.5t-162.5 43z
M856 12q-16 0 -25 9l-161 161q-10 10 -10 24t10.5 24.5t24.5 10.5t24 -11l161 -160q10 -11 10 -25t-10 -24q-14 -9 -24 -9z" />
    <glyph glyph-name="star_nor" unicode="&#xe658;" 
d="M977 484l-303 71l-162 256l-162 -256l-303 -71l200 -228l-23 -299l288 116l286 -116l-24 299z" />
    <glyph glyph-name="star_sel" unicode="&#xe659;" 
d="M977 484l-303 71l-162 256l-162 -256l-303 -71l200 -228l-23 -299l288 116l286 -116l-24 299z" />
    <glyph glyph-name="popup_close" unicode="&#xe65a;" 
d="M907.5 -35q-9.5 0 -16.5 7l-791 791q-7 7 -7 16.5t7 16.5t16.5 7t16.5 -7l791 -791q7 -7 7 -16.5t-7 -16.5t-16.5 -7zM116.5 -35q-9.5 0 -16.5 7t-7 16.5t7 16.5l791 791q7 7 16.5 7t16.5 -7t7 -16.5t-7 -16.5l-791 -791q-7 -7 -16.5 -7z" />
    <glyph glyph-name="tabbar_index_nor" unicode="&#xe65b;" 
d="M803 787q14 0 24.5 -10.5t10.5 -24.5v-166q0 -13 -10.5 -23.5t-24.5 -10.5q-15 0 -25 8.5t-10 23.5v165q0 16 10.5 27t24.5 11zM514.5 216q19.5 0 34 -13.5t14.5 -32.5v-214q0 -20 -14 -33.5t-35 -13.5q-19 0 -33.5 14t-14.5 33v214q0 19 14.5 32.5t34 13.5zM852 -105
h-675q-33 0 -57.5 24.5t-24.5 57.5v500q0 14 10.5 24.5t24.5 10.5t24.5 -10.5t10.5 -24.5v-500q0 -4 3 -7t7 -3h675q3 0 6 3t3 7v500q0 14 10.5 24.5t24.5 10.5t25.5 -10.5t11.5 -24.5v-500q0 -34 -23 -58t-56 -24zM698 707l-172 159q-16 12 -28 0l-486 -433
q-11 -11 -12 -25t9 -26q11 -11 26 -12t26 9l446 398q6 6 12 0l182 -165v95h-3zM1012 433l-244 212v-96l196 -170q9 -9 25 -9q14 0 26 12q10 10 9 25t-12 26z" />
    <glyph glyph-name="tabbar_my_nor" unicode="&#xe65c;" 
d="M689 358q47 52 74.5 123t27.5 136q0 115 -82 197t-197 82t-197 -82t-82 -197q0 -67 27.5 -136.5t74.5 -122.5q-64 -9 -126.5 -49.5t-107.5 -94.5t-73 -114.5t-28 -111.5q0 -116 67 -116h87q-31 2 -54 23t-28 51v3q0 3 -1 16t-1 23q0 37 22.5 85.5t59.5 93.5t89.5 79.5
t105.5 42.5q41 7 56 44q7 17 3 36.5t-17 33.5q-40 45 -63 103t-23 111q0 87 61 148t148 61t148 -61t61 -148q0 -53 -23 -111t-63 -101q-12 -14 -16 -33t2 -37q8 -18 23 -30t33 -14q53 -8 105.5 -43t89.5 -80.5t59.5 -94t22.5 -85.5q0 -28 -4 -42q-2 -29 -22.5 -49.5
t-50.5 -22.5h77q68 0 68 117q1 49 -26.5 109.5t-72.5 114t-107.5 94t-126.5 49.5z" />
    <glyph glyph-name="tabbar_my_sel" unicode="&#xe65d;" 
d="M689 358q47 52 74.5 123t27.5 136q0 115 -82 197t-197 82t-197 -82t-82 -197q0 -67 27.5 -136.5t74.5 -122.5q-64 -9 -126.5 -49.5t-107.5 -94t-73 -114.5t-28 -112q0 -63 18.5 -90.5t51.5 -25.5q36 2 442.5 2t441.5 -2q33 -2 51.5 25.5t18.5 90.5q0 51 -28 112
t-73 114.5t-108 94t-126 49.5z" />
    <glyph glyph-name="tabbar_index_sel" unicode="&#xe65e;" horiz-adv-x="1026" 
d="M1015 431l-487 439q-7 6 -16 6t-14 -6l-489 -439q-14 -13 -7 -31t26 -18h968q19 0 26.5 18t-7.5 31zM95 451v-509q0 -21 14 -35t35 -14h228q19 0 33 13.5t14 32.5v187q0 38 27 65.5t65.5 27.5t66 -27.5t27.5 -65.5v-187q0 -19 13.5 -32.5t32.5 -13.5h231q21 0 35 14
t14 35v509h-836zM803 794q-14 0 -24.5 -10.5t-10.5 -24.5v-184q0 -14 10.5 -24.5t24.5 -10.5t24.5 10.5t10.5 24.5v184q0 14 -10.5 24.5t-24.5 10.5z" />
    <glyph glyph-name="tabbar_ranking_nor" unicode="&#xe65f;" 
d="M931 617h-140v-70h140q10 0 16.5 -7.5t6.5 -18.5v-558q0 -21 -23 -21h-210v859q0 38 -27 66.5t-66 28.5h-232q-39 0 -66 -28.5t-27 -66.5v-859h-210q-10 0 -16.5 6t-6.5 15v419q0 10 6.5 17.5t16.5 7.5h140v70h-140q-38 0 -65.5 -28.5t-27.5 -66.5v-419q0 -38 27 -64.5
t66 -26.5h838q39 0 66 26.5t27 64.5v558q0 39 -27.5 67.5t-65.5 28.5zM652 521v-579h-280v859q0 10 6.5 17.5t17.5 7.5h232q11 0 17.5 -7.5t6.5 -17.5v-280z" />
    <glyph glyph-name="but_createjob" unicode="&#xe660;" 
d="M358 431h310q12 0 22.5 -11t10.5 -24q0 -15 -9.5 -25t-23.5 -10h-310q-13 0 -22.5 10t-9.5 24.5t9.5 25t22.5 10.5zM358 244h310q12 0 22.5 -10.5t10.5 -24.5t-9.5 -24t-23.5 -10h-310q-13 0 -22.5 10t-9.5 24.5t9.5 24.5t22.5 10zM894 638l-200 200q-12 11 -33 11h-475
q-29 0 -49.5 -20t-20.5 -49v-792q0 -29 20.5 -49t49.5 -20h652q29 0 49.5 20t20.5 49v617q0 19 -14 33zM838 28q0 -16 -11.5 -28t-28.5 -12h-572q-18 0 -29 11t-11 29v712q0 18 11 29t29 11h356v-187q0 -27 18 -46.5t45 -22.5h193v-496zM838 593h-163q-9 0 -16 7t-7 17v163z
" />
    <glyph glyph-name="login_school" unicode="&#xe661;" 
d="M500 319h-214q-11 0 -11 -12v-21q0 -11 11 -11h214q12 0 12 11v21q0 12 -12 12zM500 426h-214q-11 0 -11 -12v-21q0 -11 11 -11h214q12 0 12 11v21q0 12 -12 12zM500 533h-214q-11 0 -11 -12v-21q0 -11 11 -11h214q12 0 12 11v24q0 9 -12 9zM842 42h-11v449
q0 18 -12.5 30t-29.5 12h-193v193q0 18 -12.5 30t-29.5 12h-319q-17 0 -29.5 -12t-12.5 -30v-682h-11q-12 0 -12 -11v-21q0 -12 12 -12h663q11 0 11 12v21q-3 9 -14 9zM235 42v684h321v-684h-321zM598 42v449h193v-449h-193z" />
    <glyph glyph-name="pic_searchno" unicode="&#xe662;" 
d="M512 896q104 0 198.5 -40.5t163 -109t109.5 -163.5t41 -199t-41 -198.5t-109.5 -163t-163 -109.5t-198.5 -41t-199 41t-163.5 109.5t-109 163t-40.5 198.5t40.5 199t109 163.5t163.5 109t199 40.5zM443 337l228 -439q137 44 231.5 155t115.5 256l-205 374zM785 701h-561
q-15 0 -25 -10t-10 -24v-680q141 -115 323 -115q171 0 307 103v692q0 14 -10 24t-24 10zM366 82h210q5 0 9 -3.5t4 -8.5v-6q0 -5 -4 -8.5t-9 -3.5h-210q-5 0 -9 3.5t-4 8.5v6q0 5 4 8.5t9 3.5zM366 149h179q5 0 9 -4t4 -9v-5q0 -5 -4 -9t-9 -4h-179q-5 0 -9 4t-4 9v5
q0 5 4 9t9 4zM366 21h251q5 0 8.5 -3.5t3.5 -9.5v-5q0 -5 -3.5 -9t-8.5 -4h-251q-5 0 -9 4t-4 9v5q0 5 4 9t9 4zM611 273l43 43l127 -127l-43 -43zM725 -59v43q7 12 -15 35l-51 72q-3 2 -7 6t-10 17t-5 27v108l59 -60v118q0 2 0.5 4.5t3 9t6.5 11t12.5 8t20.5 1.5q3 0 7 -1
t14 -10t16 -25q1 -3 4 -8t14 -13t26 -7q29 5 51 -14q7 -6 37 -8h5t10.5 -2t13 -6t10.5 -13t5 -22v-71q0 -74 -29 -136q-2 -18 0 -64h-198zM922 -59v64q29 63 29 136v71q0 20 -11 31t-22 11l-11 1q-13 1 -22 3t-12 3l-3 2q-9 8 -22 11.5t-21 3.5l-8 -1q-14 -1 -25 6t-15 15
l-4 7q-5 16 -14.5 25t-15.5 10l-7 1q-18 3 -29 -5.5t-12 -18.5l-2 -10v-106l1 -7v-50q2 -24 14 -30l51 -72q15 -15 15 -37v-65zM500 615q-84 0 -144 -60t-60 -145t60 -145t144.5 -60t144.5 60t60 145t-60 145t-145 60zM500.5 248q-67.5 0 -114.5 47.5t-47 114.5t47.5 114.5
t113.5 47.5q68 0 115 -47.5t47 -114.5t-47 -114.5t-114.5 -47.5zM730 -33h204q15 0 25 -10t10 -25v-26q0 -14 -10 -24t-25 -10h-204q-14 0 -24 10t-10 24v26q0 15 10 25t24 10zM969 -93v26q0 14 -10 24t-25 10h-148v-95h148q15 0 25 10.5t10 24.5zM442 440q6 -6 13 -6
q14 0 18 16q6 16 13 23.5t22 7.5q13 0 22 -8q8 -7 8 -19q0 -5 -3 -10q-3 -6 -6 -9q-2 -2 -13 -12t-17 -15q-5 -6 -9 -16q-4 -7 -4 -20q0 -9 5 -14t12 -5q14 0 17 15q1 4 3 9q1 4 2 6q0 1 1.5 3t2.5 3l8 8q21 19 24 22q5 5 11 15q5 9 5 21q0 15 -9 28q-8 13 -24 21t-36 8
q-21 0 -38 -10q-18 -9 -25 -22q-9 -14 -9 -27q1 -7 6 -13zM519 304q7 5 7 15q0 9 -6.5 15t-14.5 6q-10 0 -16 -6t-6 -15q0 -10 6 -15q7 -6 15 -6q9 0 15 6z" />
    <glyph glyph-name="pic_nodata" unicode="&#xe663;" 
d="M512 896q138 0 256 -69t187 -187t69 -256t-69 -256t-187 -187t-256 -69t-256 69t-187 187t-69 256t69 256t187 187t256 69zM442 338l229 -441q129 43 221.5 145.5t120.5 236.5l-194 259zM784 700h-561q-14 0 -24.5 -9t-10.5 -23v-680q142 -116 324 -116q171 0 307 103
v691q0 14 -10.5 24t-24.5 10zM663 552l156 -14v-166zM819 538h-119q-46 0 -46 44v118zM512 582q72 0 123 -51.5t51 -123t-51 -123t-123 -51.5t-123 51.5t-51 123t51 123t123 51.5zM512 556q61 0 105 -44t44 -105t-44 -105t-105 -44t-105 44t-44 105t44 105t105 44zM512 377
q15 0 19 14l11 72q0 17 -7.5 25t-15.5 8h-7q-3 0 -8.5 -1t-13.5 -9t-8 -23l11 -72q4 -14 19 -14zM512 356q9 0 16 -6.5t7 -16.5q0 -9 -6.5 -16t-16.5 -7t-16.5 6t-6.5 17q0 10 7 16.5t16 6.5zM333 58h233q11 0 11 -11v-10q0 -11 -11 -11h-233q-12 0 -12 11v10q4 11 12 11z
M333 193h361q5 0 9.5 -4.5t4.5 -9.5v-2q0 -5 -4.5 -9.5t-9.5 -4.5h-361q-5 0 -9.5 4.5t-4.5 9.5v2q-2 5 2.5 9.5t11.5 4.5zM333 123h361q5 0 9.5 -4t4.5 -10v-2q0 -5 -4.5 -9.5t-9.5 -4.5h-361q-5 0 -9.5 4.5t-4.5 9.5v2q-2 6 2.5 10t11.5 4zM654 700h165v-165z" />
    <glyph glyph-name="audio" unicode="&#xe664;" 
d="M512 296q49 0 83 32.5t34 79.5v93q0 46 -34 79t-83 33t-83 -32.5t-34 -79.5v-93q0 -47 34 -79.5t83 -32.5zM671.5 451q-9.5 0 -15.5 -6t-6 -14q0 -5 1 -7v-16q0 -54 -41 -93t-98 -39t-98.5 39t-41.5 93v18q0 1 0.5 2t0.5 3q0 8 -6.5 14t-15 6t-15 -6t-6.5 -14v-30
q0 -66 45.5 -114.5t112.5 -57.5v-41h-60q-9 0 -16 -6.5t-7 -14.5q0 -10 6.5 -16t16.5 -6h165q10 0 15.5 6t5.5 16q0 8 -6 14.5t-15 6.5h-62v41q69 8 116 57t47 115v31q0 8 -6.5 13.5t-16 5.5z" />
    <glyph glyph-name="camera" unicode="&#xe665;" 
d="M524.5 425q-31.5 0 -54 -22t-22.5 -53t22.5 -53t54 -22t54 21.5t22.5 53.5q-1 32 -23 53.5t-53.5 21.5zM718 536h-85l-46 53h-140l-42 -53h-75q-19 0 -33 -16.5t-14 -36.5v-269q0 -19 13.5 -32.5t33.5 -13.5h373q20 0 33.5 14t13.5 32v275q2 47 -32 47zM524.5 234
q-48.5 0 -83.5 34t-35 83t35 83t83.5 34t83.5 -34t35 -83t-35 -83t-83.5 -34z" />
    <glyph glyph-name="img" unicode="&#xe666;" 
d="M703 589h-371q-29 0 -49.5 -21t-20.5 -51v-277q0 -30 20.5 -51t49.5 -21h371q29 0 50 21t21 51v277q0 30 -21 51t-50 21zM406 497q15 0 26 -11t11 -26t-10.5 -25.5t-26.5 -10.5q-15 0 -25.5 10.5t-10.5 25.5t10.5 26t25.5 11zM738 300q-8 -6 -14 2l-80 106q-3 3 -7.5 8
t-17 12.5t-24.5 5.5q-33 -3 -61 -68q-29 -66 -62 -74q-17 -4 -32 4t-36 25l-4 3q-19 16 -35 9.5t-54 -43.5q-4 -4 -7 -4q-5 0 -8 4q-9 8 0 14q20 21 32.5 31t27.5 17.5t28.5 4t29.5 -15.5l4 -3q35 -28 51 -25q23 6 46 62q35 76 79 81q17 2 34 -7t25 -17t9 -12l78 -104
q7 -10 -2 -16z" />
    <glyph glyph-name="vedio" unicode="&#xe667;" 
d="M743 528q-5 4 -28 -5t-44 -19l-20 -11v5q0 28 -18.5 48t-44.5 20h-241q-26 0 -44.5 -20t-18.5 -48v-228q0 -28 18.5 -48t44.5 -20h241q26 0 44.5 20t18.5 48v6q1 -1 2.5 -1.5t7.5 -3.5t11.5 -5.5t13.5 -6.5t14.5 -6.5t14 -5.5t12.5 -4.5t10 -2.5t6 1q8 5 8 143.5
t-8 143.5zM418 275v218l159 -109z" />
    <glyph glyph-name="attachment" unicode="&#xe668;" 
d="M740 453q0 61 -44 104t-107 43q-54 0 -96 -35l-1 -1q-8 -8 -8 -21t9 -21.5t22 -8.5q11 0 20 6l1 2q25 19 55 19q35 0 60.5 -24.5t25.5 -59.5q0 -39 -31 -64l-145 -143q-26 -30 -66 -30q-36 0 -61.5 24.5t-25.5 59.5q0 39 31 64l2 1l62 59q6 7 18 7q11 0 19 -8t8 -19
q0 -7 -6 -15l-61 -57l-1 -2q-7 -9 -7 -20q0 -12 9 -21t23 -9q11 0 19 7l73 71q13 15 13 45v3q0 37 -27 63t-64 26q-33 0 -59 -21l-3 -3q-1 0 -1 -1l-1 -1l-1 -2l-62 -59q-48 -42 -48 -107q0 -61 44 -104.5t107 -43.5q64 0 109 47l147 143l1 2q48 42 48 105z" />
    <glyph glyph-name="list_more-retract" unicode="&#xe669;" horiz-adv-x="3413" 
d="M1704 549q9 0 17 -7l286 -284q7 -7 7 -16t-7 -16t-16 -7t-16 7l-271 267l-267 -267q-7 -7 -16.5 -7t-16.5 7t-7 16t7 16l284 284q7 7 16 7z" />
    <glyph glyph-name="tabbar_ranking_sel" unicode="&#xe66a;" 
d="M605 896h-186q-19 0 -33 -13.5t-14 -33.5v-930q0 -20 14 -33.5t33 -13.5h186q19 0 33 13.5t14 33.5v930q0 20 -14 33.5t-33 13.5zM233 477h-186q-20 0 -33.5 -13.5t-13.5 -32.5v-512q0 -20 13.5 -33.5t33.5 -13.5h186q19 0 32.5 13.5t13.5 33.5v512q0 19 -13.5 32.5
t-32.5 13.5zM977 640h-186q-19 0 -32.5 -13.5t-13.5 -33.5v-674q0 -20 13.5 -33.5t32.5 -13.5h186q20 0 33.5 13.5t13.5 33.5v674q0 20 -13.5 33.5t-33.5 13.5z" />
    <glyph glyph-name="create_addpic" unicode="&#xe66b;" horiz-adv-x="1365" 
d="M1365 896h-1365v-1024h1365v1024zM1365 855h-13v27h-28v14h41v-41zM1282 882h-71v14h71v-14zM1169 882h-71v14h71v-14zM1057 882h-71v14h71v-14zM944 882h-71v14h71v-14zM831 882h-71v14h71v-14zM718 882h-71v14h71v-14zM605 882h-70v14h70v-14zM492 882h-70v14h70v-14z
M379 882h-70v14h70v-14zM266 882h-70v14h70v-14zM154 882h-71v14h71v-14zM14 855h-14v41h41v-14h-27v-27zM14 -45h-14v71h14v-71zM14 68h-14v70h14v-70zM14 180h-14v71h14v-71zM14 292h-14v71h14v-71zM14 405h-14v71h14v-71zM14 517h-14v71h14v-71zM14 630h-14v70h14v-70z
M14 742h-14v71h14v-71zM41 -128h-41v41h14v-27h27v-14zM1282 -128h-71v14h71v-14zM1169 -128h-71v14h71v-14zM1057 -128h-71v14h71v-14zM944 -128h-71v14h71v-14zM831 -128h-71v14h71v-14zM718 -128h-71v14h71v-14zM605 -128h-70v14h70v-14zM492 -128h-70v14h70v-14z
M379 -128h-70v14h70v-14zM266 -128h-70v14h70v-14zM154 -128h-71v14h71v-14zM1365 -128h-41v14h28v27h13v-41zM1365 -45h-13v71h13v-71zM1365 68h-13v70h13v-70zM1365 180h-13v71h13v-71zM1365 292h-13v71h13v-71zM1365 405h-13v71h13v-71zM1365 517h-13v71h13v-71z
M1365 630h-13v70h13v-70zM1365 742h-13v71h13v-71zM683 618q-5 0 -9 -3.5t-4 -9.5v-209h-210q-5 0 -8.5 -4t-3.5 -9t3.5 -9t8.5 -4h210v-207q0 -6 4 -9.5t9 -3.5t9 3.5t4 9.5v208h208q5 0 9 4t4 9t-4 9t-9 4h-208v208q0 6 -4 9.5t-9 3.5z" />
    <glyph glyph-name="create_addvedio" unicode="&#xe66c;" horiz-adv-x="1365" 
d="M0 896h1365v-1024h-1365v1024zM751 546h-273q-19 0 -32 -15.5t-13 -37.5v-218q0 -22 13 -37.5t32 -15.5h273q19 0 32 15t13 38v220q0 20 -13.5 35.5t-31.5 15.5zM912 536l-72 -72q-11 -10 -16 -22.5t-5 -19.5v-7v-63q-2 -26 21 -48l62 -63q1 -2 3 -4t7.5 -5.5t9.5 -3.5
t7.5 7t3.5 21v256q0 15 -5.5 21t-10.5 5z" />
  </font>
</defs>
</svg>
